<svg xmlns="http://www.w3.org/2000/svg" width="40" height="40" viewBox="0 0 40 40" fill="none">
  <rect width="40" height="40" rx="10" fill="url(#g-any-gen)"/>
  <defs><linearGradient id="g-any-gen" x1="0" y1="0" x2="40" y2="40" gradientUnits="userSpaceOnUse">
    <stop stop-color="#a3e635"/>
    <stop offset="1" stop-color="#65a30d"/>
  </linearGradient></defs>
  <g transform="translate(8,8)" stroke="white" stroke-width="2" stroke-linecap="round" stroke-linejoin="round" fill="none">
    <g ><path d="M11.017 2.814a1 1 0 0 1 1.966 0l1.051 5.558a2 2 0 0 0 1.594 1.594l5.558 1.051a1 1 0 0 1 0 1.966l-5.558 1.051a2 2 0 0 0-1.594 1.594l-1.051 5.558a1 1 0 0 1-1.966 0l-1.051-5.558a2 2 0 0 0-1.594-1.594l-5.558-1.051a1 1 0 0 1 0-1.966l5.558-1.051a2 2 0 0 0 1.594-1.594zM20 2v4m2-2h-4"/><circle cx="4" cy="20" r="2"/></g>
  </g>
</svg>