<svg xmlns="http://www.w3.org/2000/svg" width="40" height="40" viewBox="0 0 40 40" fill="none">
  <rect width="40" height="40" rx="10" fill="url(#g)"/>
  <defs><linearGradient id="g" x1="0" y1="0" x2="40" y2="40" gradientUnits="userSpaceOnUse">
    <stop stop-color="#10b981"/>
    <stop offset="1" stop-color="#047857"/>
  </linearGradient></defs>
  <g transform="translate(8,8)" stroke="white" stroke-width="2" stroke-linecap="round" stroke-linejoin="round" fill="none">
    <g ><path d="M3.85 8.62a4 4 0 0 1 4.78-4.77a4 4 0 0 1 6.74 0a4 4 0 0 1 4.78 4.78a4 4 0 0 1 0 6.74a4 4 0 0 1-4.77 4.78a4 4 0 0 1-6.75 0a4 4 0 0 1-4.78-4.77a4 4 0 0 1 0-6.76"/><path d="m9 12l2 2l4-4"/></g>
  </g>
</svg>