<svg xmlns="http://www.w3.org/2000/svg" width="40" height="40" viewBox="0 0 40 40" fill="none">
  <rect width="40" height="40" rx="10" fill="url(#g-log-hub)"/>
  <defs><linearGradient id="g-log-hub" x1="0" y1="0" x2="40" y2="40" gradientUnits="userSpaceOnUse">
    <stop stop-color="#64748b"/>
    <stop offset="1" stop-color="#334155"/>
  </linearGradient></defs>
  <g transform="translate(8,8)" stroke="white" stroke-width="2" stroke-linecap="round" stroke-linejoin="round" fill="none">
    <g ><path d="M15 12h-5m5-4h-5m9 9V5a2 2 0 0 0-2-2H4"/><path d="M8 21h12a2 2 0 0 0 2-2v-1a1 1 0 0 0-1-1H11a1 1 0 0 0-1 1v1a2 2 0 1 1-4 0V5a2 2 0 1 0-4 0v2a1 1 0 0 0 1 1h3"/></g>
  </g>
</svg>