<svg xmlns="http://www.w3.org/2000/svg" width="40" height="40" viewBox="0 0 40 40" fill="none">
  <rect width="40" height="40" rx="10" fill="url(#g-mark-hub)"/>
  <defs><linearGradient id="g-mark-hub" x1="0" y1="0" x2="40" y2="40" gradientUnits="userSpaceOnUse">
    <stop stop-color="#34d399"/>
    <stop offset="1" stop-color="#059669"/>
  </linearGradient></defs>
  <g transform="translate(8,8)" stroke="white" stroke-width="2" stroke-linecap="round" stroke-linejoin="round" fill="none">
    <g ><path d="M6 22a2 2 0 0 1-2-2V4a2 2 0 0 1 2-2h8a2.4 2.4 0 0 1 1.704.706l3.588 3.588A2.4 2.4 0 0 1 20 8v12a2 2 0 0 1-2 2z"/><path d="M14 2v5a1 1 0 0 0 1 1h5m-10 4.5L8 15l2 2.5m4-5l2 2.5l-2 2.5"/></g>
  </g>
</svg>