<svg xmlns="http://www.w3.org/2000/svg" width="40" height="40" viewBox="0 0 40 40" fill="none">
  <rect width="40" height="40" rx="10" fill="url(#g)"/>
  <defs><linearGradient id="g" x1="0" y1="0" x2="40" y2="40" gradientUnits="userSpaceOnUse">
    <stop stop-color="#fbbf24"/>
    <stop offset="1" stop-color="#b45309"/>
  </linearGradient></defs>
  <g transform="translate(8,8)" stroke="white" stroke-width="2" stroke-linecap="round" stroke-linejoin="round" fill="none">
    <g ><path d="M2.586 17.414A2 2 0 0 0 2 18.828V21a1 1 0 0 0 1 1h3a1 1 0 0 0 1-1v-1a1 1 0 0 1 1-1h1a1 1 0 0 0 1-1v-1a1 1 0 0 1 1-1h.172a2 2 0 0 0 1.414-.586l.814-.814a6.5 6.5 0 1 0-4-4z"/><circle cx="16.5" cy="7.5" r=".5" fill="currentColor"/></g>
  </g>
</svg>